<svg xmlns="http://www.w3.org/2000/svg" version="1.1" xmlns:xlink="http://www.w3.org/1999/xlink" xmlns:svgjs="http://svgjs.com/svgjs" width="512" height="512" x="0" y="0" viewBox="0 0 50 50" style="enable-background:new 0 0 512 512" xml:space="preserve" class=""><g><path d="M46.966 23.345c0-3.814-3.115-6.92-6.931-6.92s-6.933 3.105-6.933 6.92a6.905 6.905 0 0 0 5.769 6.813v7.267c0 5.664-4.597 10.261-10.261 10.261-5.664 0-10.262-4.598-10.262-10.261l-.025-8.325c2.686-.358 5.311-1.929 7.646-4.612.343-.394.447-.902.388-1.387 3.052-4.035 4.945-9.53 4.945-13.754 0-6.521-2.922-7.198-7.754-8.304l-.007-.012C23.244.433 22.644 0 21.917 0a1.846 1.846 0 0 0-1.849 1.836c0 1.021.827 1.848 1.849 1.848.404 0 .783-.168 1.084-.407l.043.016c4.691 1.077 5.957 1.369 5.957 6.054 0 3.715-1.758 8.69-4.445 12.282a1.767 1.767 0 0 0-1.214.588c-1.373 1.589-3.567 3.491-6.159 3.491-2.59 0-4.782-1.884-6.155-3.469a1.763 1.763 0 0 0-1.211-.587c-2.694-3.605-4.456-8.586-4.456-12.306 0-4.688 1.245-4.979 5.965-6.056l.016-.015c.324.239.677.408 1.107.408a1.848 1.848 0 0 0 1.848-1.848A1.846 1.846 0 0 0 12.448 0c-.729 0-1.328.433-1.646 1.029l-.004.001C5.961 2.146 3.034 2.811 3.034 9.347c0 4.228 1.9 9.743 4.979 13.777-.059.485.046.994.389 1.387 2.333 2.665 4.933 4.23 7.616 4.589l.003 8.324C16.022 44.359 21.676 50 28.61 50s12.564-5.641 12.564-12.576v-7.267c3.272-.546 5.792-3.378 5.792-6.812zm-6.931 4.63a4.64 4.64 0 0 1-4.63-4.628c0-2.544 2.087-4.617 4.63-4.617s4.606 2.073 4.606 4.617c.001 2.553-2.063 4.628-4.606 4.628z" fill="#009E95" data-original="#009E95" style="--darkreader-inline-fill: #009E95;" data-darkreader-inline-fill="" class=""></path><path d="M40.035 19.891a3.462 3.462 0 0 0-3.466 3.455 3.463 3.463 0 0 0 3.466 3.464 3.463 3.463 0 0 0 3.466-3.464 3.463 3.463 0 0 0-3.466-3.455z" fill="#009E95" data-original="#009E95" style="--darkreader-inline-fill: #009E95;" data-darkreader-inline-fill="" class=""></path></g></svg>